<?xml version="1.0" standalone="no"?>
<!DOCTYPE svg PUBLIC "-//W3C//DTD SVG 20010904//EN"
 "http://www.w3.org/TR/2001/REC-SVG-20010904/DTD/svg10.dtd">
<svg version="1.0" xmlns="http://www.w3.org/2000/svg"
 width="700.000000pt" height="700.000000pt" viewBox="0 0 700.000000 700.000000"
 preserveAspectRatio="xMidYMid meet">
<metadata>
Created by potrace 1.14, written by Peter Selinger 2001-2017
</metadata>
<g transform="translate(0.000000,700.000000) scale(0.100000,-0.100000)"
fill="#a54d72" stroke="none">
<path d="M3128 4675 c-1 -1 -25 -5 -53 -8 -207 -24 -407 -144 -542 -327 -65
-88 -106 -173 -168 -350 -31 -91 -77 -219 -100 -285 -24 -66 -61 -172 -83
-235 -23 -66 -43 -109 -46 -100 -3 8 -94 248 -200 534 -120 320 -206 534 -223
559 -82 113 -259 127 -360 29 -47 -46 -49 -50 -248 -587 -86 -231 -161 -429
-166 -440 -5 -11 -15 -38 -22 -59 l-14 -40 -173 520 c-95 285 -184 540 -198
567 -76 143 -282 166 -390 42 -64 -72 -79 -157 -46 -257 9 -29 142 -428 295
-886 307 -920 296 -894 396 -939 100 -46 226 -18 290 64 33 43 43 67 213 523
66 179 125 334 129 345 5 11 29 73 52 138 23 64 45 117 49 117 3 0 79 -197
169 -437 89 -241 169 -452 177 -470 8 -17 14 -35 14 -40 0 -21 61 -151 86
-181 98 -123 323 -101 395 40 11 22 51 129 89 237 38 108 98 282 135 386 36
105 73 210 81 235 8 25 19 54 24 65 5 11 23 61 39 110 17 50 47 135 66 190 20
55 45 127 56 159 31 90 56 134 111 192 80 84 181 116 292 89 69 -16 104 -35
167 -93 67 -61 102 -79 166 -88 74 -9 135 14 213 83 108 94 204 124 315 98 63
-15 105 -36 148 -77 95 -91 124 -186 105 -346 -1 -7 -15 -40 -32 -73 -25 -47
-98 -127 -351 -385 -176 -180 -322 -329 -325 -333 -3 -3 -15 -14 -27 -25 -22
-18 -22 -18 -88 50 -241 251 -380 384 -423 404 -117 55 -268 -2 -322 -122 -27
-59 -26 -140 3 -200 26 -57 513 -560 586 -608 126 -80 275 -87 418 -19 49 23
115 87 607 590 265 270 311 326 365 433 59 119 82 217 86 360 2 132 -20 247
-71 361 -75 171 -230 330 -400 410 -224 106 -487 105 -704 -3 l-75 -37 -75 37
c-95 48 -206 76 -319 82 -49 2 -91 3 -93 1z"/>
<path d="M5108 4659 c-172 -58 -217 -290 -81 -410 70 -61 77 -62 433 -65 179
-1 339 -5 355 -7 234 -39 415 -167 505 -359 64 -137 80 -327 38 -468 -63 -210
-222 -363 -448 -431 -71 -21 -95 -23 -455 -26 -808 -7 -754 -4 -801 -35 -59
-38 -101 -93 -115 -151 -29 -123 25 -233 141 -286 44 -20 58 -21 615 -18 314
2 586 7 605 11 296 63 517 179 680 360 19 22 40 45 47 51 26 27 106 155 138
222 72 151 106 313 105 492 -1 125 -3 141 -25 246 -63 301 -259 570 -530 726
-106 61 -251 117 -347 134 -17 3 -34 7 -37 9 -20 13 -177 20 -455 21 -274 1
-326 -1 -368 -16z"/>
</g>
</svg>
